<svg width="150" height="150" viewBox="0 0 150 150" fill="none" xmlns="http://www.w3.org/2000/svg">
<path d="M18.75 131.25V18.75H131.25V131.25H18.75Z" fill="#FFD600"/>
<path d="M92.3066 102.959C94.4691 106.472 96.8191 109.837 101.797 109.837C105.979 109.837 108.172 107.759 108.172 104.884C108.172 101.444 105.904 100.222 101.304 98.2187L98.7816 97.1437C91.5035 94.0562 86.6629 90.1875 86.6629 82.0156C86.6629 74.4844 92.4285 68.7531 101.438 68.7531C107.854 68.7531 112.463 70.975 115.788 76.7937L107.932 81.8156C106.204 78.7281 104.335 77.5125 101.438 77.5125C98.4816 77.5125 96.6098 79.3781 96.6098 81.8156C96.6098 84.8281 98.4848 86.0469 102.813 87.9125L105.335 88.9875C113.913 92.6406 118.75 96.3719 118.75 104.759C118.75 113.797 111.613 118.75 102.032 118.75C92.6598 118.75 87.3379 114.047 84.3754 108.225L92.3066 102.959ZM56.1004 103.216C57.6816 106.047 60.0848 108.225 63.541 108.225C66.8473 108.225 68.7504 106.919 68.7504 101.841V68.75H79.166V103.441C79.166 113.963 73.0629 118.75 64.1504 118.75C56.0973 118.75 50.2848 113.294 47.916 108.225L56.1004 103.216Z" fill="white"/>
</svg>
