<svg width="150" height="150" viewBox="0 0 150 150" fill="none" xmlns="http://www.w3.org/2000/svg">
<g clip-path="url(#clip0_2034_1233)">
<path d="M75 115.313C34.1625 115.313 0.9375 97.2281 0.9375 75C0.9375 52.7719 34.1625 34.6875 75 34.6875C115.838 34.6875 149.063 52.7719 149.063 75C149.063 97.2281 115.838 115.313 75 115.313Z" fill="#DCD5F2"/>
<path d="M75 35.625C115.322 35.625 148.125 53.2894 148.125 75C148.125 96.7106 115.322 114.375 75 114.375C34.6781 114.375 1.875 96.7106 1.875 75C1.875 53.2894 34.6781 35.625 75 35.625ZM75 33.75C33.5794 33.75 0 52.2188 0 75C0 97.7813 33.5794 116.25 75 116.25C116.421 116.25 150 97.7813 150 75C150 52.2188 116.421 33.75 75 33.75Z" fill="#8B75A1"/>
<path d="M47.085 63.75C50.3194 63.75 53.1113 64.9163 54.7425 66.9488C56.1469 68.7 56.5819 71.0194 55.995 73.6556C54.4181 80.7638 51.3656 82.5 40.4438 82.5H32.6813L35.9625 63.75H47.085ZM47.085 60H32.8125L26.25 97.5H30L31.98 86.25H40.4456C51.4388 86.25 57.42 84.5531 59.6569 74.4675C61.5788 65.805 55.1925 60 47.085 60ZM114.585 63.75C117.819 63.75 120.611 64.9163 122.243 66.9488C123.647 68.7 124.082 71.0194 123.495 73.6556C121.918 80.7638 118.866 82.5 107.944 82.5H100.181L103.463 63.75H114.585ZM114.585 60H100.313L93.75 97.5H97.5L99.48 86.25H107.946C118.939 86.25 124.92 84.5531 127.157 74.4675C129.079 65.805 122.693 60 114.585 60Z" fill="#36404D"/>
<path d="M92.01 62.2725C90.3619 60.6525 87.4575 60 83.1262 60H72.7425L75 48.75H71.0625L63.75 86.25H67.4813L71.9587 63.75H72.7444H83.1281C87.5119 63.75 88.9294 64.5 89.3812 64.9444C90.0244 65.5781 90.1763 67.2431 89.7881 69.375L86.475 86.25H90.4238L93.4725 70.0687C94.1231 66.4912 93.63 63.8663 92.01 62.2725Z" fill="#36404D"/>
</g>
<defs>
<clipPath id="clip0_2034_1233">
<rect width="150" height="150" fill="white"/>
</clipPath>
</defs>
</svg>
