<svg width="150" height="150" viewBox="0 0 150 150" fill="none" xmlns="http://www.w3.org/2000/svg">
<path d="M75 106.25C34.6875 106.25 3.125 92.5 3.125 75C3.125 57.5 34.6875 43.75 75 43.75C115.312 43.75 146.875 57.5 146.875 75C146.875 92.5 115.312 106.25 75 106.25ZM75 50C35.625 50 9.375 62.8125 9.375 75C9.375 87.1875 35.625 100 75 100C114.375 100 140.625 87.1875 140.625 75C140.625 62.8125 114.375 50 75 50Z" fill="#80DEEA"/>
<path d="M47.1872 139.375C44.0622 139.375 41.5622 138.75 39.0622 137.188C23.7497 128.438 27.8122 94.375 47.8122 59.375C57.1872 43.125 68.7497 29.375 79.9997 20.625C92.1872 11.25 103.125 8.4375 110.625 12.8125C118.437 17.1875 121.25 28.125 119.375 43.4375C117.5 57.8125 111.25 74.6875 101.875 90.9375C92.4997 107.188 80.9372 120.938 69.6872 129.688C61.5622 135.938 53.7497 139.375 47.1872 139.375ZM102.812 16.875C97.8122 16.875 91.2497 19.6875 84.0622 25.3125C73.4372 33.75 62.4997 46.875 53.4372 62.5C33.7497 96.5625 31.8747 125.938 42.1872 131.875C47.4997 135 56.2497 132.188 65.9372 124.688C76.5622 116.25 87.4997 103.125 96.5622 87.5C105.625 71.875 111.562 55.9375 113.437 42.5C115 30 113.125 21.25 107.812 18.125C106.25 17.5 104.687 16.875 102.812 16.875Z" fill="#80DEEA"/>
<path d="M103.125 139.375C87.4997 139.375 64.9997 120.312 48.1247 90.625C27.8122 55.625 23.7497 21.5625 39.0622 12.8125C54.3747 4.06248 81.8747 24.375 102.187 59.375C111.562 75.625 117.812 92.5 119.687 106.875C121.875 122.187 118.75 132.812 110.937 137.5C108.437 138.75 105.937 139.375 103.125 139.375ZM42.1872 18.125C31.8747 24.0625 33.7497 53.4375 53.4372 87.5C73.1247 121.562 97.4997 137.812 107.812 131.875C113.125 128.75 115 120 113.437 107.5C111.562 94.0625 105.625 78.125 96.5622 62.5C76.8747 28.4375 52.4997 12.1875 42.1872 18.125Z" fill="#80DEEA"/>
<path d="M75 87.5C81.9036 87.5 87.5 81.9036 87.5 75C87.5 68.0964 81.9036 62.5 75 62.5C68.0964 62.5 62.5 68.0964 62.5 75C62.5 81.9036 68.0964 87.5 75 87.5Z" fill="#80DEEA"/>
</svg>
