<svg width="150" height="150" viewBox="0 0 150 150" fill="none" xmlns="http://www.w3.org/2000/svg">
<path d="M131.25 18.75H18.75V131.25H131.25V18.75Z" fill="#1976D2"/>
<path d="M85.9059 68.75H44.459V78.95H59.3246V125H71.1027V78.95H85.9059V68.75Z" fill="white"/>
<path d="M122.482 81.5125C122.482 81.5125 116.897 77.7875 110.585 77.7875C104.272 77.7875 102 80.7875 102 83.9937C102 92.2687 125.066 91.4406 125.066 108.094C125.066 133.747 89.8973 122.369 89.8973 122.369V110.062C89.8973 110.062 96.6223 115.131 104.688 115.131C112.754 115.131 112.447 109.856 112.447 109.131C112.447 101.478 89.5879 101.478 89.5879 84.5125C89.5879 61.4469 122.894 70.5469 122.894 70.5469L122.482 81.5125Z" fill="white"/>
</svg>
