<svg width="150" height="150" viewBox="0 0 150 150" fill="none" xmlns="http://www.w3.org/2000/svg">
<path d="M75 12.6562C58.4654 12.6563 42.608 19.2246 30.9163 30.9163C19.2246 42.608 12.6563 58.4654 12.6562 75C12.6563 91.5346 19.2246 107.392 30.9163 119.084C42.608 130.775 58.4654 137.344 75 137.344C91.5346 137.344 107.392 130.775 119.084 119.084C130.775 107.392 137.344 91.5346 137.344 75C137.344 58.4654 130.775 42.608 119.084 30.9163C107.392 19.2246 91.5346 12.6563 75 12.6562Z" fill="white"/>
<path d="M25.0029 75C25.0029 94.8 36.5029 111.894 53.1842 120L29.3279 54.65C26.5561 60.8719 25.0029 67.7375 25.0029 75ZM108.762 72.4812C108.762 66.3031 105.44 62.0125 103.544 58.6937C101.003 54.5406 98.6185 51.0781 98.6185 46.9687C98.6185 42.3906 103.215 38.0937 108.122 38.0937C108.344 38.0937 108.544 38.1125 108.765 38.1187C99.8779 29.95 88.0248 25 75.0029 25C58.1623 25 43.2748 33.3312 34.2154 46.0906C34.9279 46.3219 35.1748 46.2125 36.1248 46.2125C41.3404 46.2125 49.4498 45.5875 49.4498 45.5875C52.1373 45.4094 52.4654 49.375 49.7592 49.7C49.7592 49.7 47.0592 50.0281 44.0467 50.175L62.581 105.731L73.5185 72.9156L65.3842 50.2656C62.6936 50.1219 60.1373 49.7906 60.1373 49.7906C57.4435 49.6156 57.756 45.4937 60.4435 45.6781C60.4435 45.6781 68.7186 46.3031 73.6217 46.3031C78.856 46.3031 86.9467 45.6781 86.9467 45.6781C89.6373 45.5 89.9623 49.4656 87.2717 49.7906C87.2717 49.7906 84.5529 50.1187 81.5467 50.2656L99.9561 105.297L104.953 88.6531C107.497 82.1531 108.762 76.7781 108.762 72.4812ZM75.8779 79.3625L60.8779 122.962C65.3654 124.294 70.0967 125 75.0029 125C80.8185 125 86.406 123.987 91.6154 122.166C91.4904 121.944 91.3498 121.719 91.2467 121.478L75.8779 79.3625ZM118.884 50.9938C119.106 52.5875 119.222 54.3031 119.222 56.1344C119.222 61.2219 118.265 66.9187 115.412 74.0625L100.147 118.234C115.015 109.572 125 93.4437 125 75C125 66.3094 122.778 58.1375 118.884 50.9938Z" fill="#01579B"/>
<path d="M12.5 75C12.5 109.45 40.5312 137.5 74.9969 137.5C109.469 137.5 137.5 109.45 137.5 75C137.5 40.55 109.469 12.5 75 12.5C40.5312 12.5 12.5 40.55 12.5 75ZM18.7344 75C18.7344 43.9875 43.9656 18.7531 74.9969 18.7531C106.028 18.7531 131.266 43.9875 131.266 75C131.266 106.012 106.028 131.253 75 131.253C43.975 131.253 18.7344 106.012 18.7344 75Z" fill="#01579B"/>
</svg>
